# xmcd CD database file
#
# Track frame offsets:
#	150
#	27007
#	54829
#	74173
#	101777
#	119174
#	146151
#	174591
#	193933
#	206392
#	223477
#	239370
#
# Disc length: 3292 seconds
#
# Revision: 0
# Processed by: cddbd v1.5.1PL0 Copyright (c) Steve Scherf et al.
# Submitted via: CDex 1.51
#
DISCID=c50cda0c
DTITLE=Kenny Wayne Shepherd - Ledbetter Heights
DYEAR=1900
DGENRE=Blues
TTITLE0=Born With A Broken Heart
TTITLE1=Deja Voodoo
TTITLE2=Aberdeen
TTITLE3=Shame, Shame, Shame
TTITLE4=One Foot On The Path
TTITLE5=Everybody Gets The Blues
TTITLE6=While We Cry (Live)
TTITLE7=I'm Leaving You (Commit A Crime)
TTITLE8=(Let Me Up) I've Had Enough
TTITLE9=Riverside
TTITLE10=What's Goin' Down
TTITLE11=Ledbetter Heights
EXTD=
EXTT0=
EXTT1=
EXTT2=
EXTT3=
EXTT4=
EXTT5=
EXTT6=
EXTT7=
EXTT8=
EXTT9=
EXTT10=
EXTT11=
PLAYORDER=
